<?xml version="1.0" standalone="no"?>
<!DOCTYPE svg PUBLIC "-//W3C//DTD SVG 20010904//EN"
 "http://www.w3.org/TR/2001/REC-SVG-20010904/DTD/svg10.dtd">
<svg version="1.0" xmlns="http://www.w3.org/2000/svg"
 width="480.000000pt" height="480.000000pt" viewBox="0 0 480.000000 480.000000"
 preserveAspectRatio="xMidYMid meet">
<metadata>
Created by potrace 1.14, written by Peter Selinger 2001-2017
</metadata>
<g transform="translate(0.000000,480.000000) scale(0.100000,-0.100000)"
fill="#000000" stroke="none">
<path d="M837 2478 c1 -1096 2 -1997 2 -2001 1 -9 1388 -3 1451 6 19 3 71 8
115 13 44 4 89 8 100 9 19 2 47 7 135 21 89 15 276 66 371 102 316 119 581
309 776 559 145 185 271 425 338 643 16 53 55 223 61 265 3 28 7 52 9 55 6 10
18 196 19 301 3 175 -11 316 -50 539 -22 120 -105 347 -176 480 -39 73 -137
227 -161 252 -7 7 -25 30 -40 51 -82 110 -303 300 -452 389 -184 111 -469 212
-710 253 -73 13 -171 25 -235 30 -41 4 -91 9 -110 12 -19 3 -352 8 -740 10
l-705 5 2 -1994z m1398 1518 c22 -3 63 -8 90 -11 28 -3 61 -7 75 -10 13 -3 42
-7 64 -11 135 -20 359 -94 485 -162 163 -86 324 -217 422 -342 111 -141 206
-351 243 -537 36 -180 41 -236 41 -443 0 -225 -9 -318 -50 -512 -13 -62 -68
-217 -101 -283 -84 -165 -209 -318 -345 -422 -176 -134 -424 -244 -629 -278
-19 -3 -60 -10 -90 -15 -56 -9 -128 -18 -210 -27 -25 -2 -228 -7 -452 -10
l-408 -5 0 1542 0 1542 413 -5 c226 -3 430 -8 452 -11z"/>
<path d="M2609 2733 c0 -423 -2 -795 -5 -827 -11 -149 -65 -242 -169 -291 -72
-34 -144 -44 -280 -41 -107 3 -132 7 -233 40 -170 56 -157 72 -157 -189 0
-121 1 -227 3 -236 3 -11 19 -19 50 -23 26 -4 61 -9 77 -11 83 -13 127 -15
330 -20 311 -6 439 15 615 102 126 62 239 171 293 283 75 155 71 93 75 1088
l3 892 -301 0 -300 0 -1 -767z"/>
<path d="M1500 3200 l0 -290 274 0 273 0 0 290 1 290 -274 0 -274 0 0 -290z"/>
<path d="M1500 2130 l0 -290 274 0 273 0 0 290 1 290 -274 0 -274 0 0 -290z"/>
</g>
</svg>
